<svg id="Layer_1" data-name="Layer 1" xmlns="http://www.w3.org/2000/svg" viewBox="0 0 600 600"><defs><style>.cls-1{fill:#fff;}.cls-2{fill:#8129ff;}.cls-3{fill:none;}</style></defs><path class="cls-1" d="M329.41,286.91l75,129.8c61.1-83.2,54-215.73-43.8-291.1-95.86-73.89-217.45-45-271.71,12l36.89,63.77c57.93-58.8,128.43-53.19,171.13-29.92,43,23.44,76.37,76.44,71.72,115.45Z"/><path class="cls-2" d="M195.63,183.36l74.68,129.46H229.6c5,52.44,29.07,90.94,73.72,115.67,54.11,30,106.28,20.68,171-29.57l36.82,63.63c-58.66,59.93-182.23,84.94-276.36,8.22C138.83,392.56,137.07,261.69,195.63,183.36Z"/><rect class="cls-3" width="600" height="600"/></svg>