<svg id="Layer_1" data-name="Layer 1" xmlns="http://www.w3.org/2000/svg" viewBox="0 0 489.9 188.95"><defs><style>.cls-1{fill:#161616;}.cls-2{fill:#8129ff;}</style></defs><path class="cls-1" d="M352.57,372.46H338.43L354.92,339l-22.07-54.92h15.22l11,31.14c.64,1.9,1.2,3.84,1.68,5.8s.88,4,1.18,6a70.75,70.75,0,0,1,3.93-10.09l.31-.76L381,284.05H396Z" transform="translate(-45.7 -202.65)"/><path d="M403.43,344.17V284.05h12.94v9.83a26,26,0,0,1,9.7-9.07A29.58,29.58,0,0,1,439.64,282a27.93,27.93,0,0,1,11.45,2.12,16.66,16.66,0,0,1,7.39,6.31,17.08,17.08,0,0,1,2.28,5.77,63.88,63.88,0,0,1,.7,11.55v36.46H447.57V313.29q0-11.87-2.88-15.76t-10.25-3.9a20,20,0,0,0-8.59,1.77,14.31,14.31,0,0,0-5.93,5A13.74,13.74,0,0,0,417.8,306a67.64,67.64,0,0,0-.61,10.82v27.39Z" transform="translate(-45.7 -202.65)"/><path class="cls-2" d="M481.69,344.17V296.1H471.16V284.05h10.53V267.94q0-12,5-17.69t15.44-5.71a34.46,34.46,0,0,1,4.57.32,33.32,33.32,0,0,1,4.75,1V258.3a14.51,14.51,0,0,0-3.33-1.42,12.28,12.28,0,0,0-3.39-.48c-3.3,0-5.66,1-7.1,3.05s-2.16,5.45-2.16,10.27v14.33h14.46V296.1H495.45v48.07Z" transform="translate(-45.7 -202.65)"/><path class="cls-2" d="M518.35,258.05a8.19,8.19,0,0,1,2.57-6,8.39,8.39,0,0,1,6.11-2.53,8.34,8.34,0,0,1,8.57,8.56,8.45,8.45,0,0,1-2.48,6.18,8.23,8.23,0,0,1-6.09,2.51,8.78,8.78,0,0,1-8.68-8.69Zm1.84,86.12V284.05H534v60.12Z" transform="translate(-45.7 -202.65)"/><path class="cls-1" d="M149.64,291.47,182,347.56c26.4-36,23.32-93.22-18.92-125.79-41.42-31.92-94-19.45-117.4,5.19l15.93,27.55c25-25.4,55.5-23,74-12.93s33,33,31,49.89Z" transform="translate(-45.7 -202.65)"/><path class="cls-2" d="M91.83,246.73l32.27,55.94H106.51c2.15,22.65,12.56,39.29,31.85,50,23.38,12.95,45.92,8.94,73.89-12.77l15.91,27.49c-25.35,25.9-78.74,36.7-119.42,3.55C67.29,337.12,66.53,280.57,91.83,246.73Z" transform="translate(-45.7 -202.65)"/><path d="M267.46,343.55V250.7h15.09v38.43l33.36-38.43h18.46L297.58,292l41.16,51.56H319.27l-36.72-47.44v47.44Z" transform="translate(-45.7 -202.65)"/></svg>