<svg xmlns="http://www.w3.org/2000/svg" viewBox="0 0 489.9 188.95"><defs><style>.cls-1{fill:#fff;}.cls-2{fill:#8129ff;}</style></defs><g id="Layer_2" data-name="Layer 2"><g id="Layer_1-2" data-name="Layer 1"><path class="cls-1" d="M306.87,169.81H292.73l16.49-33.49L287.15,81.4h15.22l11,31.14c.63,1.9,1.19,3.84,1.68,5.8s.87,4,1.17,6a73.33,73.33,0,0,1,3.93-10.09l.32-.76L335.35,81.4h14.9Z"/><path class="cls-1" d="M357.74,141.52V81.4h12.93v9.83a25.9,25.9,0,0,1,9.71-9.07A29.55,29.55,0,0,1,394,79.31a28,28,0,0,1,11.45,2.12,16.63,16.63,0,0,1,7.38,6.31,17.3,17.3,0,0,1,2.29,5.77,65.11,65.11,0,0,1,.69,11.55v36.46H401.87V110.64q0-11.86-2.88-15.76T388.75,91a20,20,0,0,0-8.6,1.77,14.37,14.37,0,0,0-5.93,5,13.74,13.74,0,0,0-2.12,5.55,69.07,69.07,0,0,0-.6,10.82v27.39Z"/><path class="cls-2" d="M436,141.52V93.45H425.47v-12H436V65.29q0-12,5-17.69t15.45-5.71a34.31,34.31,0,0,1,4.56.32,33.74,33.74,0,0,1,4.76,1V55.65a14.51,14.51,0,0,0-3.33-1.42,12.28,12.28,0,0,0-3.39-.48q-4.95,0-7.11,3t-2.15,10.28V81.4h14.46v12H449.76v48.07Z"/><path class="cls-2" d="M472.65,55.4a8.21,8.21,0,0,1,2.57-6,8.4,8.4,0,0,1,6.12-2.53,8.34,8.34,0,0,1,8.56,8.56,8.45,8.45,0,0,1-2.47,6.18,8.23,8.23,0,0,1-6.09,2.51,8.78,8.78,0,0,1-8.69-8.69Zm1.84,86.12V81.4h13.76v60.12Z"/><path class="cls-1" d="M103.94,88.82c11.14,19.3,21.7,37.58,32.39,56.08C162.73,109,159.65,51.69,117.4,19.12,76-12.8,23.44-.33,0,24.31L15.94,51.86c25-25.41,55.49-23,73.94-12.93s33,33,31,49.89Z"/><path class="cls-2" d="M46.13,44.07,78.4,100H60.81c2.16,22.65,12.56,39.29,31.85,50,23.38,12.95,45.93,8.94,73.89-12.77q8,13.82,15.91,27.49c-25.35,25.9-78.74,36.7-119.41,3.55C21.59,134.47,20.83,77.92,46.13,44.07Z"/><path class="cls-1" d="M221.76,140.9V48.05h15.1V86.48l33.36-38.43h18.45L251.89,89.34l41.16,51.56H273.58L236.86,93.46V140.9Z"/></g></g></svg>